<svg width="402" height="144" xmlns="http://www.w3.org/2000/svg"><title>background</title><path fill="none" d="M-1-1h404v146H-1z"/><g><title>Layer 1</title><g stroke="none" fill="#9E9E9E"><path d="M113.99 18.215c-2.473-1.86-5.034-3.52-7.664-4.983-1.904-1.06-4.295-.564-5.604 1.177L84.23 36.32l-1.176 1.564c-1.786 2.373-4.638 3.665-7.605 3.53-1.083-.05-2.165-.04-3.243.028-8.29.525-16.308 4.525-21.694 11.68-4.33 5.754-6.23 12.577-5.88 19.246.064 1.2.758 2.298 1.852 2.796 2.27 1.032 4.017 3.137 4.454 5.83.617 3.81-1.723 7.55-5.42 8.66-4.356 1.305-8.83-1.364-9.813-5.725-.532-2.363.08-4.712 1.463-6.48.768-.982 1.154-2.204 1.044-3.445-.758-8.552 1.52-17.402 7.09-24.802C52.33 39.87 63.02 34.93 73.866 34.866c2.09-.012 4.052-1.01 5.31-2.68l15.187-20.18c1.19-1.578.42-3.847-1.476-4.404-25.43-7.46-53.905.934-70.96 23.146-22.1 28.78-16.73 70.28 11.987 92.462 2.687 2.076 5.482 3.91 8.36 5.508 1.893 1.052 4.274.537 5.577-1.193l16.493-21.91 1.176-1.564c1.785-2.372 4.637-3.664 7.604-3.528 1.082.05 2.164.04 3.242-.03 8.29-.524 16.308-4.524 21.694-11.68 4.33-5.753 6.23-12.576 5.88-19.245-.064-1.2-.758-2.298-1.852-2.796-2.27-1.03-4.017-3.136-4.454-5.83-.618-3.808 1.722-7.55 5.418-8.657 4.357-1.306 8.832 1.363 9.814 5.724.532 2.362-.08 4.71-1.463 6.48-.768.98-1.154 2.203-1.044 3.444.757 8.553-1.52 17.403-7.09 24.803-7.027 9.334-17.718 14.274-28.563 14.337-2.09.012-4.052 1.01-5.31 2.68L54.212 129.93c-1.18 1.568-.438 3.842 1.445 4.396 25.633 7.534 54.368-1.045 71.384-23.652 21.925-29.135 16.084-70.53-13.05-92.457zM222.964 36.25V34.68c-.002-1.133-.92-2.052-2.054-2.052h-51.424c-1.134 0-2.053.92-2.053 2.053v3.137c0 1.134.92 2.053 2.053 2.053h43.63c1.254 0 2.22 1.107 2.033 2.348-1.225 8.114-5.062 23.286-17.052 37.855-.847 1.03-2.42 1.01-3.24-.04-10.033-12.827-13.12-25.98-13.963-30.825-.184-1.06-1.166-1.792-2.237-1.678l-1.643.174-1.45.15c-1.187.125-2.025 1.23-1.807 2.404 1.028 5.558 4.773 20.84 16.55 35.388.682.843.624 2.076-.176 2.81-14.336 13.15-27.23 16.03-31.84 16.657-1.028.14-1.795 1.01-1.79 2.046l.015 3.17c.006 1.22 1.065 2.174 2.276 2.032 5.484-.645 20.116-3.743 36.284-18.613.8-.735 2.014-.735 2.81.002 7.813 7.235 17.8 14.21 31.266 18.495 1.09.347 2.26-.287 2.582-1.385l.887-3.007c.318-1.078-.297-2.198-1.367-2.54-12.252-3.907-21.285-10.2-28.378-16.65-.818-.744-.86-2.006-.14-2.846 19.983-23.397 20.23-48.433 20.227-49.57zM258.66 29.347h-3.136c-1.134 0-2.053.92-2.053 2.053v11c0 1.133-.918 2.052-2.052 2.052h-7.38c-1.133 0-2.052.92-2.052 2.053v3.137c0 1.134.92 2.053 2.053 2.053h7.378c1.134 0 2.053.92 2.053 2.053V69.68c0 1.135-.918 2.054-2.052 2.054h-7.38c-1.133 0-2.052.92-2.052 2.053v3.137c0 1.134.92 2.053 2.053 2.053h7.378c1.134 0 2.053.92 2.053 2.053v15.065c0 3.27-1.306 8.606-9.647 9.31-1.078.09-1.92.965-1.92 2.047v3.125c0 1.196 1.016 2.157 2.208 2.055 8.1-.693 16.604-5.292 16.604-16.537V81.03c0-1.134.92-2.053 2.053-2.053h6.557c1.134 0 2.053-.92 2.053-2.053v-3.137c0-1.134-.92-2.053-2.053-2.053h-6.557c-1.134 0-2.053-.92-2.053-2.053V53.75c0-1.134.92-2.053 2.053-2.053h6.557c1.134 0 2.053-.92 2.053-2.053v-3.137c0-1.134-.92-2.053-2.053-2.053h-6.557c-1.134 0-2.053-.92-2.053-2.053v-11c0-1.134-.92-2.053-2.053-2.053zM275 110.084c0 1.134.918 2.053 2.052 2.053h23.138c10.24 0 18.57-7.94 18.57-17.7v-48.63c0-1.134-.92-2.053-2.054-2.053h-39.654c-1.134 0-2.053.92-2.053 2.053v64.277zm25.19-5.19h-15.895c-1.134 0-2.053-.92-2.053-2.053V81.03c0-1.133.92-2.052 2.053-2.052h25.167c1.134 0 2.053.92 2.053 2.053v13.407c0 5.766-5.08 10.457-11.325 10.457zm11.326-51.843v16.632c0 1.134-.92 2.053-2.053 2.053h-25.167c-1.134 0-2.053-.92-2.053-2.053v-16.63c0-1.135.92-2.054 2.053-2.054h25.167c1.134 0 2.053.92 2.053 2.053zM306.522 29.293h-20.44c-1.134 0-2.053.92-2.053 2.053v3.137c0 1.134.918 2.053 2.052 2.053h20.44c1.134 0 2.053-.92 2.053-2.053v-3.137c0-1.134-.92-2.053-2.053-2.053zM384.654 32.48H342.08c-1.133 0-2.052.918-2.052 2.052v3.137c0 1.133.92 2.052 2.053 2.052h42.574c1.134 0 2.053-.92 2.053-2.053V34.53c0-1.134-.92-2.053-2.053-2.053zM366.46 68.792h29.658c1.134 0 2.053-.92 2.053-2.053V63.6c0-1.134-.918-2.053-2.052-2.053h-65.51c-1.134 0-2.053.918-2.053 2.052v3.137c0 1.133.92 2.052 2.053 2.052h20.274c1.638 0 2.617 1.824 1.71 3.19l-13.49 24.342c-.364.545-.633 1.08-.822 1.633-1.13 3.3-.6 6.838 1.45 9.71 2.15 3.01 5.707 4.806 9.51 4.806h36.976c1.662 0 3.18-.83 4.06-2.218.864-1.36.97-3.04.284-4.495l-8.586-16.643c-.52-1.008-1.76-1.403-2.766-.883l-2.788 1.44c-1.008.52-1.403 1.757-.883 2.765l5.055 9.795c.705 1.367-.287 2.995-1.825 2.995H349.24c-1.493 0-2.81-.647-3.617-1.775-.367-.512-.9-1.53-.59-2.798.053-.212.158-.413.28-.596l16.396-28.72c1.057-1.59 2.84-2.548 4.75-2.548z"/></g></g></svg>